<svg width="50" height="50" viewBox="0 0 50 50" fill="none" xmlns="http://www.w3.org/2000/svg">
<g clip-path="url(#clip0_6_3597)">
<path d="M42.1776 15.6389L27.8886 7.38892M27.8886 40.3889L42.1776 32.1389M13.5996 15.6389V32.1389M46.5086 34.6389V13.1389L27.8886 2.38892L9.26855 13.1389V34.6389L27.8886 45.3889L46.5086 34.6389Z" stroke="#DE25DE" stroke-linecap="round" stroke-linejoin="round"/>
<path d="M32.5668 17.0919C31.505 16.3617 30.287 15.8903 29.0103 15.7153C27.7336 15.5404 26.4336 15.6668 25.2146 16.0845C23.9955 16.5021 22.8911 17.1994 21.9899 18.1205C21.0887 19.0417 20.4157 20.161 20.0248 21.3889M20.0088 26.3419C20.3629 27.475 20.9574 28.5184 21.7517 29.4007C22.546 30.2831 23.5213 30.9836 24.6111 31.4544C25.7009 31.9253 26.8795 32.1554 28.0664 32.129C29.2533 32.1027 30.4205 31.8205 31.4884 31.3017C32.5562 30.7829 33.4995 30.0398 34.2538 29.123C35.0081 28.2063 35.5557 27.1376 35.8592 25.9898C36.1626 24.8421 36.2148 23.6424 36.0121 22.4726C35.8094 21.3029 35.3567 20.1906 34.6848 19.2119" stroke="#DE25DE" stroke-linecap="round" stroke-linejoin="round"/>
<path d="M19.6387 26.3889C21.0194 26.3889 22.1387 25.2696 22.1387 23.8889C22.1387 22.5082 21.0194 21.3889 19.6387 21.3889C18.258 21.3889 17.1387 22.5082 17.1387 23.8889C17.1387 25.2696 18.258 26.3889 19.6387 26.3889Z" stroke="#DE25DE" stroke-linecap="round" stroke-linejoin="round"/>
<path d="M33.6387 19.6389C34.4671 19.6389 35.1387 18.9673 35.1387 18.1389C35.1387 17.3105 34.4671 16.6389 33.6387 16.6389C32.8102 16.6389 32.1387 17.3105 32.1387 18.1389C32.1387 18.9673 32.8102 19.6389 33.6387 19.6389Z" stroke="#DE25DE" stroke-linecap="round" stroke-linejoin="round"/>
</g>
<defs>
<clipPath id="clip0_6_3597">
<rect width="49.7778" height="49.7778" fill="white"/>
</clipPath>
</defs>
</svg>
