<svg width="50" height="50" viewBox="0 0 50 50" fill="none" xmlns="http://www.w3.org/2000/svg">
<g clip-path="url(#clip0_6_3632)">
<path d="M36.3867 25C36.3811 23.2072 36.189 21.4197 35.8133 19.6667H40.6133C40.3661 18.9354 40.0676 18.2225 39.72 17.5333H35.2533C34.4137 14.7281 33.1113 12.0828 31.4 9.70668C30.3067 9.24694 29.1667 8.90718 28 8.69334C30.3445 11.2123 32.1141 14.2103 33.1867 17.48H26V8.46667H24V17.4933H16.8133C17.8881 14.2177 19.6625 11.2149 22.0133 8.69334C20.8517 8.90361 19.7162 9.23889 18.6267 9.69334C16.9086 12.0595 15.5973 14.6957 14.7467 17.4933H10.2533C9.89944 18.1951 9.59643 18.9214 9.34668 19.6667H14.1867C13.8111 21.4197 13.6189 23.2072 13.6133 25C13.617 26.961 13.8407 28.9155 14.28 30.8267H9.56001C9.83585 31.5741 10.1656 32.3004 10.5467 33H14.8533C15.6696 35.5544 16.8798 37.9657 18.44 40.1467C19.5573 40.6259 20.7245 40.9792 21.92 41.2C19.7439 38.8264 18.0704 36.0371 17 33H24.0133V41.4533H26.0133V33H33C31.926 36.0384 30.2479 38.8278 28.0667 41.2C29.2678 40.9716 30.4395 40.6093 31.56 40.12C33.1178 37.9472 34.3278 35.5451 35.1467 33H39.4133C39.7927 32.3133 40.1224 31.6004 40.4 30.8667H35.6667C36.127 28.9445 36.3685 26.9764 36.3867 25ZM24 30.8267H16.3467C15.408 27.1571 15.3668 23.3155 16.2267 19.6267H24V30.8267ZM33.6533 30.8267H26V19.6667H33.7733C34.1564 21.4183 34.3442 23.207 34.3333 25C34.3442 26.9626 34.1158 28.9193 33.6533 30.8267Z" fill="#DE25DE"/>
<path d="M24.9998 3.66663C20.7805 3.66663 16.6559 4.9178 13.1477 7.26194C9.63943 9.60608 6.90509 12.9379 5.29042 16.836C3.67575 20.7342 3.25328 25.0236 4.07643 29.1619C4.89958 33.3001 6.93138 37.1014 9.9149 40.0849C12.8984 43.0684 16.6997 45.1002 20.8379 45.9234C24.9762 46.7465 29.2656 46.3241 33.1638 44.7094C37.0619 43.0947 40.3937 40.3604 42.7379 36.8521C45.082 33.3439 46.3332 29.2193 46.3332 25C46.3332 19.342 44.0856 13.9158 40.0848 9.91501C36.084 5.91424 30.6578 3.66663 24.9998 3.66663ZM24.9998 43.6666C21.3079 43.6666 17.6989 42.5718 14.6292 40.5207C11.5595 38.4696 9.16693 35.5543 7.7541 32.1434C6.34126 28.7325 5.9716 24.9793 6.69185 21.3583C7.41211 17.7373 9.18994 14.4112 11.8005 11.8006C14.4111 9.19005 17.7372 7.41222 21.3582 6.69197C24.9791 5.97171 28.7324 6.34137 32.1433 7.75421C35.5542 9.16704 38.4695 11.5596 40.5206 14.6293C42.5717 17.699 43.6665 21.308 43.6665 25C43.6665 29.9507 41.6998 34.6986 38.1992 38.1993C34.6985 41.7 29.9506 43.6666 24.9998 43.6666Z" fill="#DE25DE"/>
</g>
<defs>
<clipPath id="clip0_6_3632">
<rect width="48" height="48" fill="white" transform="translate(1 1)"/>
</clipPath>
</defs>
</svg>
