<svg width="50" height="50" viewBox="0 0 50 50" fill="none" xmlns="http://www.w3.org/2000/svg">
<g clip-path="url(#clip0_6_3614)">
<g clip-path="url(#clip1_6_3614)">
<path d="M33.222 1.22229H14.5553C13.8481 1.22229 13.1698 1.50324 12.6697 2.00334C12.1696 2.50344 11.8887 3.18171 11.8887 3.88896V35.889C11.8887 36.5962 12.1696 37.2745 12.6697 37.7746C13.1698 38.2747 13.8481 38.5556 14.5553 38.5556H33.222C33.9293 38.5556 34.6075 38.2747 35.1076 37.7746C35.6077 37.2745 35.8887 36.5962 35.8887 35.889V3.88896C35.8887 3.18171 35.6077 2.50344 35.1076 2.00334C34.6075 1.50324 33.9293 1.22229 33.222 1.22229ZM25.222 35.889H22.5553V33.2223H25.222V35.889ZM14.5553 30.5556V3.88896H33.222V30.5556H14.5553Z" fill="#DE25DE"/>
</g>
</g>
<defs>
<clipPath id="clip0_6_3614">
<rect width="49.7778" height="49.7778" fill="white"/>
</clipPath>
<clipPath id="clip1_6_3614">
<rect width="48" height="48" fill="white" transform="translate(-0.111328 -4.11108)"/>
</clipPath>
</defs>
</svg>
