<svg width="1285" height="1483" viewBox="0 0 1285 1483" fill="none" xmlns="http://www.w3.org/2000/svg">
<g opacity="0.17">
<path opacity="0.0344828" d="M1263 344.722C1255.95 336.325 1245.35 331.147 1231.49 329.068C1217.61 326.987 1200.53 328.019 1180.65 331.994C1140.88 339.942 1090.1 359.614 1031.76 389.296C915.08 448.653 768.328 547.939 619.178 673.09C470.028 798.242 346.768 925.524 268.052 1030.12C228.689 1082.43 200.499 1129.02 185.765 1166.8C178.398 1185.69 174.415 1202.33 174.055 1216.36C173.696 1230.37 176.954 1241.71 184 1250.11C191.045 1258.51 201.646 1263.68 215.512 1265.76C229.386 1267.85 246.467 1266.81 266.351 1262.84C306.119 1254.89 356.895 1235.22 415.241 1205.54C531.919 1146.18 678.671 1046.89 827.821 921.741C976.971 796.59 1100.23 669.308 1178.95 564.71C1218.31 512.404 1246.5 465.816 1261.23 428.032C1268.6 409.14 1272.58 392.498 1272.94 378.474C1273.3 364.457 1270.05 353.118 1263 344.722Z" stroke="#2B2C3B" stroke-width="2"/>
<path opacity="0.0689655" d="M1221.49 293.795C1213.74 286.044 1202.73 281.81 1188.74 280.947C1174.73 280.083 1157.81 282.6 1138.34 288.293C1099.42 299.677 1050.55 323.699 995.016 358.354C883.955 427.654 746.415 539.352 608.74 677.027C471.065 814.702 359.368 952.242 290.067 1063.3C255.412 1118.84 231.39 1167.71 220.006 1206.63C214.313 1226.09 211.796 1243.02 212.66 1257.02C213.523 1271.02 217.757 1282.03 225.508 1289.78C233.258 1297.53 244.27 1301.76 258.265 1302.63C272.268 1303.49 289.193 1300.97 308.655 1295.28C347.579 1283.9 396.447 1259.87 451.985 1225.22C563.046 1155.92 700.586 1044.22 838.26 906.547C975.935 768.872 1087.63 631.332 1156.93 520.272C1191.59 464.734 1215.61 415.866 1226.99 376.942C1232.69 357.48 1235.2 340.555 1234.34 326.552C1233.48 312.557 1229.24 301.545 1221.49 293.795Z" stroke="#2B2C3B" stroke-width="2"/>
<path opacity="0.103448" d="M1176.19 246.656C1167.8 239.61 1156.46 236.352 1142.44 236.712C1128.42 237.071 1111.78 241.054 1092.88 248.421C1055.1 263.155 1008.51 291.345 956.206 330.708C851.608 409.424 724.326 532.684 599.174 681.834C474.023 830.984 374.738 977.736 315.38 1094.41C285.698 1152.76 266.026 1203.54 258.078 1243.3C254.103 1263.19 253.071 1280.27 255.152 1294.14C257.231 1308.01 262.409 1318.61 270.806 1325.66C279.202 1332.7 290.541 1335.96 304.558 1335.6C318.583 1335.24 335.224 1331.26 354.116 1323.89C391.9 1309.16 438.488 1280.97 490.794 1241.6C595.392 1162.89 722.674 1039.63 847.826 890.477C972.977 741.327 1072.26 594.575 1131.62 477.897C1161.3 419.551 1180.97 368.775 1188.92 329.007C1192.9 309.123 1193.93 292.042 1191.85 278.168C1189.77 264.302 1184.59 253.701 1176.19 246.656Z" stroke="#2B2C3B" stroke-width="2"/>
<path opacity="0.137931" d="M1127.45 203.622C1118.47 197.335 1106.89 195.078 1092.96 196.658C1079.02 198.239 1062.79 203.657 1044.61 212.642C1008.26 230.613 964.302 262.756 915.626 306.528C818.286 394.061 702.232 527.945 590.556 687.436C478.879 846.926 392.762 1001.77 343.8 1123.18C319.316 1183.89 304.144 1236.19 299.692 1276.5C297.466 1296.65 297.926 1313.76 301.208 1327.4C304.488 1341.03 310.57 1351.14 319.549 1357.43C328.528 1363.71 340.108 1365.97 354.039 1364.39C367.979 1362.81 384.211 1357.39 402.389 1348.41C438.744 1330.44 482.699 1298.29 531.375 1254.52C628.714 1166.99 744.769 1033.1 856.445 873.613C968.121 714.123 1054.24 559.277 1103.2 437.869C1127.68 377.158 1142.86 324.861 1147.31 284.551C1149.53 264.396 1149.07 247.291 1145.79 233.651C1142.51 220.019 1136.43 209.909 1127.45 203.622Z" stroke="#2B2C3B" stroke-width="2"/>
<path opacity="0.172414" d="M1075.63 164.981C1066.14 159.5 1054.41 158.261 1040.67 161.049C1026.92 163.839 1011.22 170.651 993.896 181.186C959.245 202.257 918.259 238.109 873.583 285.957C784.243 381.641 680.299 525.13 582.948 693.747C485.598 862.363 413.304 1024.13 375.11 1149.34C356.01 1211.95 345.454 1265.37 344.532 1305.92C344.071 1326.19 346.02 1343.19 350.478 1356.49C354.934 1369.79 361.874 1379.33 371.367 1384.81C380.859 1390.29 392.592 1391.53 406.333 1388.74C420.082 1385.95 435.779 1379.14 453.105 1368.6C487.756 1347.53 528.742 1311.68 573.417 1263.83C662.758 1168.15 766.702 1024.66 864.052 856.042C961.403 687.426 1033.7 525.663 1071.89 400.45C1090.99 337.836 1101.55 284.415 1102.47 243.871C1102.93 223.599 1100.98 206.599 1096.52 193.296C1092.07 180.002 1085.13 170.461 1075.63 164.981Z" stroke="#2B2C3B" stroke-width="2"/>
<path opacity="0.206897" d="M1021.14 130.98C1011.2 126.348 999.406 126.136 985.961 130.111C972.507 134.088 957.463 142.242 941.121 154.248C908.439 178.259 870.734 217.546 830.398 269.106C749.737 372.212 658.695 524.215 576.41 700.674C494.126 877.134 436.206 1044.58 409.07 1172.65C395.5 1236.69 389.64 1290.82 392.255 1331.3C393.563 1351.53 396.986 1368.3 402.587 1381.16C408.185 1394.01 415.93 1402.91 425.864 1407.55C435.798 1412.18 447.594 1412.39 461.039 1408.42C474.493 1404.44 489.537 1396.28 505.879 1384.28C538.561 1360.27 576.266 1320.98 616.602 1269.42C697.263 1166.31 788.305 1014.31 870.59 837.852C952.874 661.393 1010.79 493.945 1037.93 365.879C1051.5 301.839 1057.36 247.702 1054.74 207.231C1053.44 186.996 1050.01 170.23 1044.41 157.367C1038.82 144.512 1031.07 135.612 1021.14 130.98Z" stroke="#2B2C3B" stroke-width="2"/>
<path opacity="0.241379" d="M964.374 101.836C954.074 98.0867 942.304 98.9032 929.256 104.035C916.2 109.17 901.924 118.604 886.691 131.989C856.225 158.756 822.088 201.18 786.4 256.059C715.032 365.803 637.584 525.163 570.992 708.122C504.4 891.082 461.295 1062.94 445.424 1192.88C437.487 1257.86 436.368 1312.31 442.5 1352.39C445.566 1372.44 450.438 1388.84 457.139 1401.17C463.835 1413.49 472.327 1421.68 482.626 1425.43C492.926 1429.17 504.696 1428.36 517.744 1423.23C530.8 1418.09 545.076 1408.66 560.309 1395.27C590.775 1368.5 624.912 1326.08 660.6 1271.2C731.968 1161.46 809.416 1002.1 876.008 819.139C942.6 636.179 985.705 464.32 1001.58 334.377C1009.51 269.398 1010.63 214.956 1004.5 174.867C1001.43 154.823 996.562 138.42 989.862 126.094C983.165 113.775 974.674 105.584 964.374 101.836Z" stroke="#2B2C3B" stroke-width="2"/>
<path opacity="0.275862" d="M905.778 77.733C895.191 74.8961 883.537 76.7353 870.986 82.9849C858.427 89.2382 845.028 99.8808 831.019 114.542C803.002 143.863 772.692 189.101 741.923 246.881C680.392 362.428 617.127 527.931 566.735 715.998C516.342 904.065 488.379 1079.03 483.894 1209.86C481.651 1275.28 485.281 1329.62 494.884 1369.02C499.685 1388.72 505.968 1404.63 513.717 1416.33C521.462 1428.02 530.635 1435.44 541.222 1438.27C551.81 1441.11 563.463 1439.27 576.015 1433.02C588.573 1426.77 601.973 1416.13 615.981 1401.46C643.998 1372.14 674.308 1326.91 705.077 1269.12C766.609 1153.58 829.873 988.075 880.266 800.008C930.658 611.941 958.621 436.979 963.107 306.147C965.35 240.723 961.72 186.391 952.117 146.99C947.315 127.289 941.033 111.372 933.283 99.6774C925.538 87.9895 916.365 80.5699 905.778 77.733Z" stroke="#2B2C3B" stroke-width="2"/>
<path opacity="0.310345" d="M845.795 58.8043C835 56.901 823.551 59.7489 811.593 67.0686C799.627 74.3927 787.206 86.1626 774.528 101.989C749.174 133.64 722.922 181.348 697.305 241.59C646.079 362.059 597.48 532.446 563.67 724.19C529.861 915.934 517.253 1092.67 524.187 1223.39C527.655 1288.76 536.006 1342.57 549.007 1380.99C555.507 1400.19 563.153 1415.5 571.892 1426.48C580.626 1437.45 590.411 1444.04 601.205 1445.94C612 1447.84 623.449 1445 635.407 1437.68C647.373 1430.35 659.794 1418.58 672.472 1402.76C697.826 1371.1 724.078 1323.4 749.695 1263.15C800.921 1142.69 849.52 972.298 883.33 780.555C917.139 588.811 929.747 412.078 922.813 281.353C919.345 215.982 910.994 162.173 897.993 123.759C891.493 104.551 883.847 89.243 875.108 78.2681C866.374 67.2996 856.589 60.7077 845.795 58.8043Z" stroke="#2B2C3B" stroke-width="2"/>
<path opacity="0.344828" d="M784.881 45.1541C773.961 44.1988 762.804 48.0337 751.529 56.3679C740.247 64.707 728.899 77.5146 717.649 94.3854C695.15 128.126 673.156 177.94 652.887 240.186C612.355 364.662 578.791 538.636 561.822 732.597C544.852 926.557 547.696 1103.72 565.997 1233.34C575.149 1298.16 588.159 1351.04 604.458 1388.17C612.607 1406.74 621.558 1421.32 631.221 1431.49C640.878 1441.66 651.199 1447.37 662.119 1448.33C673.038 1449.28 684.195 1445.45 695.47 1437.12C706.752 1428.78 718.1 1415.97 729.35 1399.1C751.85 1365.36 773.844 1315.54 794.112 1253.3C834.644 1128.82 868.208 954.847 885.177 760.887C902.147 566.926 899.303 389.766 881.002 260.143C871.85 195.324 858.84 142.447 842.542 105.312C834.392 86.744 825.441 72.1605 815.778 61.989C806.122 51.8235 795.8 46.1094 784.881 45.1541Z" stroke="#2B2C3B" stroke-width="2"/>
<path opacity="0.37931" d="M723.5 36.8416C712.539 36.8416 701.759 41.6343 691.252 50.9194C680.74 60.2101 670.552 73.958 660.815 91.7451C641.342 127.318 623.773 178.86 609.007 242.635C579.478 370.17 561.205 546.407 561.205 741.109C561.205 935.81 579.478 1112.05 609.007 1239.58C623.773 1303.36 641.342 1354.9 660.815 1390.47C670.552 1408.26 680.74 1422.01 691.252 1431.3C701.759 1440.58 712.539 1445.38 723.5 1445.38C734.461 1445.38 745.241 1440.58 755.747 1431.3C766.26 1422.01 776.448 1408.26 786.185 1390.47C805.658 1354.9 823.227 1303.36 837.993 1239.58C867.522 1112.05 885.795 935.81 885.795 741.109C885.795 546.407 867.522 370.17 837.993 242.635C823.227 178.86 805.658 127.318 786.185 91.7451C776.448 73.958 766.26 60.2101 755.747 50.9194C745.241 41.6343 734.461 36.8416 723.5 36.8416Z" stroke="#2B2C3B" stroke-width="2"/>
<path opacity="0.413793" d="M662.118 33.8889C651.199 34.8442 640.877 40.5583 631.221 50.7238C621.558 60.8953 612.607 75.4788 604.457 94.0469C588.159 131.182 575.149 184.058 565.997 248.878C547.696 378.501 544.852 555.661 561.822 749.621C578.791 943.582 612.355 1117.56 652.887 1242.03C673.155 1304.28 695.149 1354.09 717.649 1387.83C728.899 1404.7 740.247 1417.51 751.529 1425.85C762.804 1434.18 773.961 1438.02 784.88 1437.06C795.8 1436.11 806.121 1430.39 815.778 1420.23C825.441 1410.06 834.392 1395.47 842.541 1376.91C858.84 1339.77 871.85 1286.89 881.002 1222.07C899.303 1092.45 902.147 915.292 885.177 721.331C868.208 527.371 834.644 353.396 794.112 228.921C773.843 166.675 751.85 116.861 729.35 83.1202C718.1 66.2494 706.752 53.4417 695.47 45.1027C684.195 36.7685 673.038 32.9336 662.118 33.8889Z" stroke="#2B2C3B" stroke-width="2"/>
<path opacity="0.448276" d="M601.205 36.2771C590.411 38.1805 580.626 44.7724 571.892 55.7408C563.153 66.7158 555.507 82.024 549.006 101.232C536.006 139.646 527.654 193.455 524.187 258.826C517.253 389.551 529.86 566.284 563.67 758.027C597.479 949.771 646.079 1120.16 697.305 1240.63C722.922 1300.87 749.173 1348.58 774.528 1380.23C787.206 1396.05 799.626 1407.82 811.592 1415.15C823.551 1422.47 835 1425.32 845.794 1423.41C856.589 1421.51 866.373 1414.92 875.107 1403.95C883.847 1392.97 891.493 1377.67 897.993 1358.46C910.993 1320.04 919.345 1266.24 922.812 1200.86C929.747 1070.14 917.139 893.406 883.329 701.663C849.52 509.919 800.921 339.532 749.694 219.063C724.078 158.82 697.826 111.113 672.471 79.4615C659.794 63.6354 647.373 51.8655 635.407 44.5414C623.448 37.2217 611.999 34.3738 601.205 36.2771Z" stroke="#2B2C3B" stroke-width="2"/>
<path opacity="0.482759" d="M541.222 43.9467C530.634 46.7836 521.462 54.2032 513.717 65.8912C505.967 77.586 499.685 93.5024 494.883 113.203C485.28 152.605 481.65 206.937 483.893 272.361C488.379 403.193 516.342 578.155 566.734 766.222C617.127 954.289 680.391 1119.79 741.922 1235.34C772.692 1293.12 803.002 1338.36 831.019 1367.68C845.027 1382.34 858.426 1392.98 870.985 1399.24C883.536 1405.48 895.19 1407.32 905.777 1404.49C916.365 1401.65 925.538 1394.23 933.283 1382.54C941.032 1370.85 947.315 1354.93 952.116 1335.23C961.719 1295.83 965.349 1241.5 963.106 1176.07C958.62 1045.24 930.657 870.279 880.265 682.212C829.873 494.144 766.608 328.641 705.077 213.095C674.307 155.315 643.998 110.076 615.981 80.7555C601.972 66.0945 588.573 55.4519 576.014 49.1986C563.463 42.949 551.809 41.1098 541.222 43.9467Z" stroke="#2B2C3B" stroke-width="2"/>
<path opacity="0.517241" d="M482.626 56.79C472.326 60.5389 463.835 68.7297 457.138 81.0482C450.437 93.374 445.566 109.777 442.499 129.822C436.367 169.91 437.486 224.352 445.423 289.332C461.294 419.275 504.4 591.134 570.992 774.093C637.583 957.053 715.032 1116.41 786.399 1226.16C822.087 1281.03 856.225 1323.46 886.69 1350.23C901.924 1363.61 916.199 1373.05 929.255 1378.18C942.304 1383.31 954.073 1384.13 964.373 1380.38C974.673 1376.63 983.164 1368.44 989.861 1356.12C996.562 1343.8 1001.43 1327.39 1004.5 1307.35C1010.63 1267.26 1009.51 1212.82 1001.58 1147.84C985.705 1017.9 942.599 846.036 876.007 663.077C809.415 480.117 731.967 320.758 660.6 211.014C624.911 156.135 590.774 113.711 560.308 86.943C545.075 73.5588 530.799 64.1245 517.743 58.9896C504.695 53.8577 492.926 53.0412 482.626 56.79Z" stroke="#2B2C3B" stroke-width="2"/>
<path opacity="0.551724" d="M425.864 74.6723C415.93 79.3046 408.185 88.2043 402.587 101.06C396.986 113.922 393.563 130.688 392.255 150.924C389.64 191.394 395.5 245.531 409.07 309.571C436.206 437.637 494.126 605.085 576.41 781.544C658.695 958.004 749.737 1110.01 830.398 1213.11C870.733 1264.67 908.438 1303.96 941.121 1327.97C957.463 1339.98 972.507 1348.13 985.96 1352.11C999.406 1356.08 1011.2 1355.87 1021.14 1351.24C1031.07 1346.61 1038.82 1337.71 1044.41 1324.85C1050.01 1311.99 1053.44 1295.22 1054.74 1274.99C1057.36 1234.52 1051.5 1180.38 1037.93 1116.34C1010.79 988.274 952.874 820.826 870.589 644.366C788.305 467.907 697.263 315.904 616.602 212.798C576.266 161.238 538.561 121.951 505.879 97.9401C489.537 85.9345 474.493 77.7803 461.039 73.8028C447.594 69.8276 435.798 70.04 425.864 74.6723Z" stroke="#2B2C3B" stroke-width="2"/>
<path opacity="0.586207" d="M371.366 97.4103C361.874 102.891 354.934 112.432 350.478 125.726C346.02 139.028 344.07 156.028 344.532 176.301C345.454 216.845 356.01 270.265 375.109 332.879C413.304 458.092 485.597 619.855 582.948 788.471C680.299 957.088 784.243 1100.58 873.583 1196.26C918.259 1244.11 959.244 1279.96 993.895 1301.03C1011.22 1311.57 1026.92 1318.38 1040.67 1321.17C1054.41 1323.96 1066.14 1322.72 1075.63 1317.24C1085.13 1311.76 1092.07 1302.22 1096.52 1288.92C1100.98 1275.62 1102.93 1258.62 1102.47 1238.35C1101.55 1197.8 1090.99 1144.38 1071.89 1081.77C1033.7 956.555 961.403 794.792 864.052 626.176C766.701 457.559 662.757 314.07 573.417 218.386C528.741 170.538 487.756 134.686 453.105 113.616C435.779 103.08 420.082 96.2681 406.332 93.4783C392.591 90.6901 380.859 91.9298 371.366 97.4103Z" stroke="#2B2C3B" stroke-width="2"/>
<path opacity="0.62069" d="M319.549 124.792C310.57 131.079 304.488 141.188 301.208 154.82C297.926 168.46 297.466 185.566 299.692 205.721C304.144 246.03 319.316 298.327 343.8 359.039C392.762 480.446 478.879 635.293 590.555 794.783C702.232 954.273 818.286 1088.16 915.626 1175.69C964.302 1219.46 1008.26 1251.61 1044.61 1269.58C1062.79 1278.56 1079.02 1283.98 1092.96 1285.56C1106.89 1287.14 1118.47 1284.88 1127.45 1278.6C1136.43 1272.31 1142.51 1262.2 1145.79 1248.57C1149.07 1234.93 1149.53 1217.82 1147.31 1197.67C1142.86 1157.36 1127.68 1105.06 1103.2 1044.35C1054.24 922.942 968.121 768.095 856.445 608.605C744.768 449.115 628.714 315.231 531.374 227.698C482.698 183.925 438.744 151.782 402.389 133.812C384.21 124.826 367.979 119.408 354.039 117.827C340.107 116.247 328.527 118.505 319.549 124.792Z" stroke="#2B2C3B" stroke-width="2"/>
<path opacity="0.655172" d="M270.806 156.561C262.409 163.607 257.231 174.208 255.152 188.074C253.071 201.948 254.103 219.028 258.078 238.913C266.026 278.681 285.698 329.457 315.38 387.803C374.738 504.481 474.023 651.233 599.174 800.383C724.326 949.533 851.608 1072.79 956.206 1151.51C1008.51 1190.87 1055.1 1219.06 1092.88 1233.8C1111.78 1241.16 1128.42 1245.15 1142.44 1245.51C1156.46 1245.87 1167.8 1242.61 1176.19 1235.56C1184.59 1228.52 1189.77 1217.91 1191.85 1204.05C1193.93 1190.17 1192.9 1173.09 1188.92 1153.21C1180.97 1113.44 1161.3 1062.67 1131.62 1004.32C1072.26 887.642 972.977 740.89 847.826 591.74C722.674 442.59 595.392 319.33 490.794 240.614C438.488 201.25 391.9 173.06 354.116 158.327C335.224 150.96 318.583 146.977 304.558 146.617C290.541 146.258 279.202 149.516 270.806 156.561Z" stroke="#2B2C3B" stroke-width="2"/>
<path opacity="0.689655" d="M225.508 192.439C217.757 200.189 213.523 211.201 212.66 225.196C211.796 239.199 214.313 256.124 220.005 275.586C231.39 314.51 255.412 363.378 290.067 418.916C359.367 529.977 471.065 667.517 608.74 805.191C746.414 942.866 883.954 1054.56 995.015 1123.86C1050.55 1158.52 1099.42 1182.54 1138.34 1193.93C1157.81 1199.62 1174.73 1202.14 1188.74 1201.27C1202.73 1200.41 1213.74 1196.17 1221.49 1188.42C1229.24 1180.67 1233.48 1169.66 1234.34 1155.67C1235.2 1141.66 1232.69 1124.74 1226.99 1105.28C1215.61 1066.35 1191.59 1017.48 1156.93 961.947C1087.63 850.886 975.935 713.346 838.26 575.671C700.585 437.996 563.045 326.299 451.984 256.998C396.447 222.343 347.579 198.321 308.655 186.937C289.193 181.244 272.267 178.727 258.264 179.591C244.27 180.454 233.258 184.688 225.508 192.439Z" stroke="#2B2C3B" stroke-width="2"/>
<path opacity="0.724138" d="M183.999 232.106C176.954 240.503 173.696 251.842 174.055 265.858C174.415 279.883 178.398 296.524 185.765 315.417C200.498 353.2 228.689 399.789 268.052 452.094C346.768 556.693 470.028 683.974 619.178 809.126C768.328 934.278 915.08 1033.56 1031.76 1092.92C1090.1 1122.6 1140.88 1142.27 1180.65 1150.22C1200.53 1154.2 1217.61 1155.23 1231.49 1153.15C1245.35 1151.07 1255.95 1145.89 1263 1137.49C1270.05 1129.1 1273.3 1117.76 1272.94 1103.74C1272.58 1089.72 1268.6 1073.08 1261.23 1054.18C1246.5 1016.4 1218.31 969.812 1178.95 917.506C1100.23 812.908 976.971 685.627 827.821 560.475C678.671 435.323 531.919 336.038 415.241 276.681C356.895 246.998 306.119 227.327 266.351 219.378C246.466 215.404 229.386 214.371 215.512 216.452C201.646 218.532 191.045 223.709 183.999 232.106Z" stroke="#2B2C3B" stroke-width="2"/>
<path opacity="0.758621" d="M146.598 275.218C140.311 284.196 138.053 295.776 139.633 309.708C141.214 323.648 146.632 339.879 155.617 358.057C173.588 394.413 205.731 438.367 249.503 487.043C337.036 584.383 470.921 700.437 630.411 812.113C789.901 923.79 944.747 1009.91 1066.15 1058.87C1126.87 1083.35 1179.16 1098.52 1219.47 1102.98C1239.63 1105.2 1256.73 1104.74 1270.37 1101.46C1284.01 1098.18 1294.11 1092.1 1300.4 1083.12C1306.69 1074.14 1308.95 1062.56 1307.37 1048.63C1305.79 1034.69 1300.37 1018.46 1291.38 1000.28C1273.41 963.925 1241.27 919.97 1197.5 871.294C1109.96 773.955 976.079 657.9 816.588 546.224C657.098 434.548 502.252 348.431 380.844 299.469C320.133 274.985 267.836 259.813 227.526 255.361C207.371 253.134 190.266 253.594 176.626 256.877C162.994 260.157 152.884 266.239 146.598 275.218Z" stroke="#2B2C3B" stroke-width="2"/>
<path opacity="0.793103" d="M113.586 321.405C108.106 330.897 106.866 342.63 109.654 356.371C112.444 370.12 119.256 385.817 129.792 403.143C150.862 437.794 186.714 478.779 234.562 523.455C330.246 612.795 473.735 716.739 642.352 814.09C810.968 911.441 972.731 983.735 1097.94 1021.93C1160.56 1041.03 1213.98 1051.58 1254.52 1052.51C1274.8 1052.97 1291.8 1051.02 1305.1 1046.56C1318.39 1042.1 1327.93 1035.16 1333.41 1025.67C1338.89 1016.18 1340.13 1004.45 1337.35 990.706C1334.56 976.957 1327.74 961.259 1317.21 943.933C1296.14 909.282 1260.28 868.297 1212.44 823.621C1116.75 734.281 973.264 630.337 804.647 532.986C636.031 435.635 474.268 363.342 349.055 325.147C286.441 306.048 233.02 295.492 192.476 294.57C172.204 294.109 155.204 296.058 141.902 300.516C128.607 304.972 119.067 311.912 113.586 321.405Z" stroke="#2B2C3B" stroke-width="2"/>
<path opacity="0.827586" d="M85.2166 370.27C80.5844 380.204 80.372 392 84.3472 405.446C88.3246 418.9 96.4788 433.944 108.484 450.285C132.495 482.968 171.782 520.673 223.342 561.009C326.448 641.669 478.451 732.712 654.911 814.996C831.37 897.281 998.818 955.201 1126.88 982.337C1190.92 995.907 1245.06 1001.77 1285.53 999.151C1305.77 997.844 1322.53 994.421 1335.4 988.82C1348.25 983.222 1357.15 975.477 1361.78 965.543C1366.42 955.609 1366.63 943.813 1362.65 930.367C1358.67 916.913 1350.52 901.87 1338.51 885.528C1314.5 852.845 1275.22 815.14 1223.66 774.805C1120.55 694.144 968.548 603.101 792.089 520.817C615.629 438.533 448.181 380.613 320.116 353.477C256.075 339.907 201.938 334.047 161.468 336.662C141.232 337.969 124.467 341.393 111.604 346.994C98.7487 352.591 89.8489 360.336 85.2166 370.27Z" stroke="#2B2C3B" stroke-width="2"/>
<path opacity="0.862069" d="M61.7057 421.403C57.9568 431.703 58.7734 443.472 63.9053 456.52C69.0402 469.576 78.4745 483.852 91.8587 499.085C118.626 529.551 161.051 563.688 215.929 599.377C325.673 670.744 485.033 748.192 667.992 814.784C850.952 881.376 1022.81 924.482 1152.75 940.353C1217.73 948.289 1272.18 949.409 1312.26 943.276C1332.31 940.21 1348.71 935.339 1361.04 928.638C1373.36 921.941 1381.55 913.45 1385.3 903.15C1389.04 892.85 1388.23 881.081 1383.1 868.032C1377.96 854.976 1368.53 840.701 1355.14 825.467C1328.37 795.002 1285.95 760.864 1231.07 725.176C1121.33 653.809 961.968 576.36 779.009 509.769C596.049 443.177 424.19 400.071 294.247 384.2C229.268 376.263 174.826 375.144 134.738 381.276C114.693 384.343 98.2896 389.214 85.9639 395.915C73.6454 402.612 65.4545 411.103 61.7057 421.403Z" stroke="#2B2C3B" stroke-width="2"/>
<path opacity="0.896552" d="M43.2299 474.368C40.393 484.955 42.2322 496.609 48.4818 509.16C54.7351 521.719 65.3777 535.118 80.0387 549.127C109.36 577.144 154.598 607.454 212.378 638.223C327.925 699.754 493.428 763.019 681.495 813.411C869.562 863.804 1044.52 891.767 1175.36 896.252C1240.78 898.495 1295.11 894.865 1334.51 885.262C1354.21 880.461 1370.13 874.178 1381.83 866.429C1393.51 858.684 1400.93 849.511 1403.77 838.924C1406.61 828.336 1404.77 816.683 1398.52 804.131C1392.26 791.573 1381.62 778.173 1366.96 764.165C1337.64 736.148 1292.4 705.838 1234.62 675.068C1119.08 613.537 953.572 550.273 765.505 499.88C577.438 449.488 402.476 421.525 271.644 417.039C206.22 414.796 151.888 418.426 112.487 428.029C92.7856 432.831 76.8692 439.113 65.1744 446.863C53.4864 454.608 46.0668 463.781 43.2299 474.368Z" stroke="#2B2C3B" stroke-width="2"/>
<path opacity="0.931035" d="M29.9319 528.72C28.0285 539.514 30.8764 550.963 38.1962 562.922C45.5202 574.888 57.2902 587.308 73.1163 599.986C104.768 625.341 152.475 651.593 212.717 677.209C333.187 728.436 503.574 777.035 695.318 810.844C887.061 844.654 1063.79 857.261 1194.52 850.327C1259.89 846.86 1313.7 838.508 1352.11 825.508C1371.32 819.007 1386.63 811.361 1397.6 802.622C1408.57 793.888 1415.16 784.104 1417.07 773.309C1418.97 762.515 1416.12 751.066 1408.8 739.107C1401.48 727.141 1389.71 714.72 1373.88 702.043C1342.23 676.688 1294.52 650.436 1234.28 624.82C1113.81 573.593 943.426 524.994 751.682 491.185C559.939 457.375 383.205 444.767 252.481 451.702C187.11 455.169 133.301 463.521 94.8864 476.521C75.6788 483.021 60.3706 490.667 49.3956 499.407C38.4272 508.141 31.8352 517.925 29.9319 528.72Z" stroke="#2B2C3B" stroke-width="2"/>
<path opacity="0.965517" d="M21.9132 584.004C20.9578 594.924 24.7927 606.081 33.1269 617.356C41.466 628.638 54.2737 639.986 71.1445 651.236C104.885 673.735 154.699 695.729 216.945 715.998C341.421 756.53 515.395 790.094 709.356 807.063C903.316 824.033 1080.48 821.189 1210.1 802.888C1274.92 793.736 1327.79 780.726 1364.93 764.427C1383.5 756.278 1398.08 747.327 1408.25 737.664C1418.42 728.007 1424.13 717.685 1425.09 706.766C1426.04 695.847 1422.21 684.69 1413.87 673.415C1405.54 662.132 1392.73 650.785 1375.86 639.535C1342.12 617.035 1292.3 595.041 1230.06 574.773C1105.58 534.241 931.606 500.677 737.646 483.707C543.685 466.738 366.525 469.582 236.902 487.883C172.083 497.035 119.206 510.044 82.0711 526.343C63.5031 534.493 48.9195 543.444 38.748 553.107C28.5825 562.763 22.8685 573.085 21.9132 584.004Z" stroke="#2B2C3B" stroke-width="2"/>
<path d="M19.2323 639.753C19.2323 650.714 24.025 661.495 33.3102 672.001C42.6008 682.513 56.3488 692.701 74.1359 702.438C109.709 721.911 161.25 739.48 225.026 754.246C352.561 783.775 528.798 802.049 723.5 802.049C918.201 802.049 1094.44 783.775 1221.97 754.246C1285.75 739.48 1337.29 721.911 1372.86 702.438C1390.65 692.701 1404.4 682.513 1413.69 672.001C1422.97 661.495 1427.77 650.714 1427.77 639.753C1427.77 628.792 1422.97 618.012 1413.69 607.506C1404.4 596.994 1390.65 586.806 1372.86 577.069C1337.29 557.595 1285.75 540.027 1221.97 525.26C1094.44 495.731 918.201 477.458 723.5 477.458C528.798 477.458 352.561 495.731 225.026 525.26C161.25 540.027 109.709 557.595 74.1359 577.069C56.3488 586.806 42.6008 596.994 33.3102 607.506C24.025 618.012 19.2323 628.792 19.2323 639.753Z" stroke="#2B2C3B" stroke-width="2"/>
</g>
</svg>
